<svg width="47" height="44" viewBox="0 0 47 44" fill="none" xmlns="http://www.w3.org/2000/svg">
<path fill-rule="evenodd" clip-rule="evenodd" d="M7.86395 26.125H7.34375C4.09908 26.125 1.46875 23.6626 1.46875 20.625V11C1.46875 8.77546 2.90014 6.76995 5.09548 5.91866C6.86977 5.23063 8.86065 5.40604 10.4461 6.32904L11.1496 5.58812C14.5245 2.03368 19.362 0 24.4419 0C29.1587 0 33.6822 1.75412 37.0175 4.87648L39.4043 7.11091C40.4642 8.1032 41.125 9.48197 41.125 11L41.125 13.75C41.125 15.3927 40.3557 16.8672 39.1361 17.875L39.6562 17.875C42.9009 17.875 45.5312 20.3374 45.5312 23.375V33C45.5312 35.2245 44.0999 37.23 41.9045 38.0813C40.1302 38.7694 38.1394 38.5939 36.5539 37.6709L35.8504 38.4119C32.4755 41.9663 27.638 44 22.5581 44C17.8413 44 13.3178 42.2459 9.98253 39.1235L7.59575 36.8891C6.5358 35.8968 5.875 34.518 5.875 33V30.25C5.875 28.6073 6.64427 27.1328 7.86395 26.125ZM31.0957 17.6391C31.2058 17.7422 31.3204 17.8412 31.4391 17.9359C29.4227 18.2192 27.681 19.4705 26.8847 21.2702C26.5798 21.9593 26.4333 22.6852 26.4375 23.4042V26.1561L26.4376 26.1666C26.444 26.9507 26.6298 27.7272 26.9837 28.4412C25.8431 29.5932 24.2397 30.25 22.5581 30.25C20.9576 30.25 19.4227 29.6548 18.291 28.5953L15.9043 26.3609C15.7942 26.2578 15.6796 26.1588 15.5609 26.0641C17.5773 25.7808 19.319 24.5295 20.1153 22.7297C20.4202 22.0407 20.5667 21.3148 20.5625 20.5958V17.8439L20.5624 17.8334C20.556 17.0493 20.3702 16.2728 20.0163 15.5588C21.1569 14.4068 22.7603 13.75 24.4419 13.75C26.0424 13.75 27.5773 14.3452 28.709 15.4047L31.0957 17.6391Z" fill="#625B71"/>
<path d="M16.7646 15.9305C17.3321 16.4617 17.6309 17.1737 17.625 17.8966V20.6466C17.6222 20.994 17.549 21.3438 17.4014 21.6774C16.9467 22.705 15.8756 23.375 14.6875 23.375H7.34375C5.72141 23.375 4.40625 22.1438 4.40625 20.625V11C4.40625 9.88772 5.12195 8.88497 6.21962 8.45933C7.31729 8.03368 8.58076 8.26896 9.42088 9.05545L10.6739 10.2285L13.3451 7.41512C16.1626 4.44777 20.201 2.75 24.4419 2.75C28.3796 2.75 32.156 4.21439 34.9403 6.82102L37.3271 9.05545C37.8587 9.55311 38.1875 10.2406 38.1875 11V13.75C38.1875 15.2688 36.8723 16.5 35.25 16.5C34.4377 16.5 33.7025 16.1914 33.1707 15.6925L30.7861 13.4601C29.1035 11.8849 26.8214 11 24.4419 11C21.8792 11 19.4387 12.026 17.7361 13.8191L16.2176 15.4184L16.7646 15.9305Z" fill="#1D1B20"/>
<path d="M29.2639 30.1809L30.7824 28.5816L30.2354 28.0695C29.679 27.5486 29.3808 26.8539 29.375 26.1455V23.3955C29.372 23.0343 29.4451 22.6696 29.5986 22.3226C30.0533 21.295 31.1244 20.625 32.3125 20.625L39.6562 20.625C41.2786 20.625 42.5938 21.8562 42.5938 23.375V33C42.5938 34.1123 41.8781 35.115 40.7804 35.5407C39.6827 35.9663 38.4192 35.731 37.5791 34.9445L36.3261 33.7715L33.6549 36.5849C30.8374 39.5522 26.799 41.25 22.5581 41.25C18.6204 41.25 14.844 39.7856 12.0597 37.179L9.67287 34.9445C9.14129 34.4469 8.8125 33.7594 8.8125 33V30.25C8.8125 28.7312 10.1277 27.5 11.75 27.5C12.5612 27.5 13.2955 27.8078 13.8271 28.3055L16.2139 30.5399C17.8965 32.1151 20.1786 33 22.5581 33C25.1208 33 27.5613 31.974 29.2639 30.1809Z" fill="#1D1B20"/>
<path d="M14.8353 14.1243L17.7361 11.0691C19.4387 9.27596 21.8792 8.25 24.4419 8.25C26.8214 8.25 29.1035 9.13493 30.7861 10.7101L33.1725 12.9442C33.1724 12.9441 33.1726 12.9443 33.1725 12.9442C33.7041 13.4418 34.4388 13.75 35.25 13.75C36.8723 13.75 38.1875 12.5188 38.1875 11C38.1875 10.2406 37.8587 9.55311 37.3271 9.05546L34.9403 6.82102C32.156 4.21439 28.3796 2.75 24.4419 2.75C20.201 2.75 16.1626 4.44778 13.3451 7.41512L10.6739 10.2285L9.42088 9.05545C8.58076 8.26896 7.31729 8.03368 6.21962 8.45933C5.12195 8.88497 4.40625 9.88772 4.40625 11V17.875C4.40625 19.3938 5.72141 20.625 7.34375 20.625H14.6875C15.8756 20.625 16.9467 19.955 17.4014 18.9274C17.549 18.5938 17.6222 18.244 17.625 17.8966C17.6309 17.1737 17.3321 16.4617 16.7646 15.9305L14.8353 14.1243Z" fill="white"/>
<path d="M37.5791 32.1945C38.4192 32.981 39.6827 33.2163 40.7804 32.7907C41.8781 32.365 42.5938 31.3623 42.5938 30.25V23.375C42.5938 21.8562 41.2786 20.625 39.6562 20.625L32.3125 20.625C31.1244 20.625 30.0533 21.295 29.5986 22.3226C29.4451 22.6696 29.372 23.0343 29.375 23.3955C29.3808 24.1039 29.679 24.7986 30.2354 25.3195L32.1647 27.1257L29.2639 30.1809C27.5613 31.974 25.1208 33 22.5581 33C20.1786 33 17.8965 32.1151 16.2139 30.5399L13.8289 28.3071C13.2972 27.8085 12.5621 27.5 11.75 27.5C10.1277 27.5 8.8125 28.7312 8.8125 30.25C8.8125 31.0094 9.14129 31.6969 9.67287 32.1945L12.0597 34.429C14.844 37.0356 18.6204 38.5 22.5581 38.5C26.799 38.5 30.8374 36.8022 33.6549 33.8349L36.3261 31.0215L37.5791 32.1945Z" fill="white"/>
</svg>
